<svg xmlns="http://www.w3.org/2000/svg" viewBox="0 0 24 24" role="img" aria-label="Light mode"><path fill="currentColor" d="M12 7.1a4.9 4.9 0 1 1 0 9.8 4.9 4.9 0 0 1 0-9.8Zm0 1.8a3.1 3.1 0 1 0 0 6.2 3.1 3.1 0 0 0 0-6.2ZM11.1 2h1.8v3.2h-1.8V2Zm0 16.8h1.8V22h-1.8v-3.2ZM2 11.1h3.2v1.8H2v-1.8Zm16.8 0H22v1.8h-3.2v-1.8ZM5.04 3.77 7.3 6.03 6.03 7.3 3.77 5.04l1.27-1.27Zm12.93 12.93 2.26 2.26-1.27 1.27-2.26-2.26 1.27-1.27Zm1-12.93 1.26 1.27-2.26 2.26-1.27-1.27 2.26-2.26ZM6.03 16.7l1.27 1.27-2.26 2.26-1.27-1.27 2.26-2.26Z"/></svg>
